# xmcd CD database file generated by Grip 2.95
# 
# Track frame offsets:
#       150
#       10739
#       21037
#       31896
#       44491
#       60287
#       75108
#       88802
#       100988
#       118090
#       133705
#       154376
#       168004
#       178667
#       191275
#       201029
# 
# Disc length: 2883 seconds
# 
# Revision: 3
# Processed by: cddbd v1.5PL3 Copyright (c) Steve Scherf et al.
# Submitted via: Grip 2.95
# 
DISCID=be0b4110
DTITLE=The Damn Fans - Hellbilly Tribute Disc 1
DYEAR=1900
DGENRE=
TTITLE0=Go Fuck You - Little White Pills
TTITLE1=Little Bit of Smoke - hewhocannotbenamed
TTITLE2=Broke, Lovesick and Driftin' - ALdrifter
TTITLE3=Even Though I'm Broke - the killer
TTITLE4=Cecil Brown - chickentrucker69
TTITLE5=7 Months, 39 Days - Jethro NC
TTITLE6=Hey Good Lookin' - FortyTwenty
TTITLE7=Why Don't You Leave Me Alone - BirdTV
TTITLE8=Cocaine Blues - Rich Cro
TTITLE9=Mississippi Mud - Foothill Hobo
TTITLE10=Only Hell My Mama Ever Raised - Chad M
TTITLE11=Drinkin' Over Mama - TVC
TTITLE12=5 Shots of Whiskey - Sammytown Jones
TTITLE13=Now He's Dead - bignothing and sickboy
TTITLE14=Even Though I'm Broke (2) - Grinder
TTITLE15=The Dukes of Hazzard (Theme Song) - c-bear
EXTD=
EXTT0=
EXTT1=
EXTT2=
EXTT3=
EXTT4=
EXTT5=
EXTT6=
EXTT7=
EXTT8=
EXTT9=
EXTT10=
EXTT11=
EXTT12=
EXTT13=
EXTT14=
EXTT15=
PLAYORDER=
